<?xml version="1.0" standalone="no"?>
<!DOCTYPE svg PUBLIC "-//W3C//DTD SVG 20010904//EN"
 "http://www.w3.org/TR/2001/REC-SVG-20010904/DTD/svg10.dtd">
<svg version="1.0" xmlns="http://www.w3.org/2000/svg"
 width="200.000000pt" height="200.000000pt" viewBox="0 0 200.000000 200.000000"
 preserveAspectRatio="xMidYMid meet">
<metadata>
Created by potrace 1.14, written by Peter Selinger 2001-2017
</metadata>
<g transform="translate(0.000000,200.000000) scale(0.100000,-0.100000)"
fill="#000000" stroke="none">
<path d="M1161 1794 c19 -15 25 -23 14 -19 -44 16 -60 16 -32 0 37 -21 34 -35
-5 -25 -46 12 -220 21 -188 11 19 -7 9 -10 -45 -11 l-70 -2 55 -13 55 -13 -45
-2 -45 -2 45 -8 c99 -18 100 -29 2 -29 -57 -1 -91 -5 -87 -11 3 -5 -19 -16
-50 -25 -34 -10 -53 -21 -49 -27 5 -7 0 -9 -14 -6 -12 4 -20 2 -17 -2 3 -5
-11 -12 -32 -16 -21 -4 -33 -9 -27 -11 7 -2 42 3 79 12 38 8 70 13 72 11 6 -5
-56 -23 -141 -40 -61 -13 -58 -25 7 -27 l32 -1 -30 -9 c-16 -4 -48 -12 -70
-18 l-40 -9 40 -1 c29 -1 36 -4 25 -11 -8 -5 -16 -14 -16 -20 -1 -5 -3 -12 -4
-15 -1 -3 -3 -10 -4 -15 0 -6 -8 -15 -16 -21 -11 -8 -8 -9 15 -4 l30 6 -30
-26 c-21 -18 -24 -23 -10 -18 20 6 20 6 2 -15 -18 -20 -18 -20 0 -17 10 2 21
4 26 4 4 1 6 6 5 12 -2 6 7 12 20 14 21 2 21 1 5 -18 -17 -20 -17 -20 2 -13
25 9 14 -1 -44 -43 -24 -17 -40 -31 -36 -31 5 0 -7 -14 -26 -31 -31 -29 -32
-31 -9 -24 14 4 32 10 40 13 10 4 7 -6 -9 -34 -12 -21 -17 -33 -10 -26 18 17
42 15 36 -2 -3 -8 -1 -17 6 -19 8 -3 7 -10 -5 -24 -28 -31 -21 -37 16 -14 48
30 52 26 20 -16 -15 -21 -21 -32 -12 -25 13 10 15 9 13 -13 -2 -14 1 -27 6
-31 5 -3 9 2 9 10 0 8 5 18 11 22 8 4 9 -1 4 -17 l-8 -24 23 20 23 20 -13 -24
c-7 -14 -14 -47 -15 -74 l-2 -49 17 27 c17 25 18 26 24 8 4 -11 0 -39 -9 -62
-17 -51 0 -45 22 8 l16 36 9 -25 c5 -14 8 -42 6 -62 -2 -21 0 -38 5 -38 5 0 0
-16 -12 -36 -24 -41 -28 -57 -6 -28 14 18 14 18 15 -6 0 -15 5 -31 11 -37 6
-6 8 -17 4 -23 -6 -9 -9 -9 -15 0 -6 9 -11 6 -20 -10 -10 -18 -10 -21 2 -14 7
5 21 9 31 9 10 0 22 7 27 15 9 13 10 13 10 0 0 -9 -6 -22 -12 -29 -10 -11 -10
-13 0 -7 6 4 12 2 12 -5 0 -7 -10 -9 -25 -7 -14 3 -23 1 -22 -6 1 -6 -5 -9
-13 -7 -8 3 -37 7 -63 9 -37 3 -53 0 -68 -14 -17 -15 -23 -16 -41 -5 -11 7
-17 8 -14 2 10 -16 -40 -24 -66 -10 -21 11 -22 11 -9 -4 12 -15 11 -17 -13
-17 -14 0 -26 -5 -26 -11 0 -8 -14 -9 -42 -5 l-43 6 25 -20 25 -20 -41 0 c-22
0 -45 5 -52 12 -6 6 -14 9 -18 6 -3 -4 6 -14 20 -23 l25 -17 -25 -23 c-14 -13
-35 -31 -47 -39 l-22 -17 22 11 c23 11 23 10 -2 -26 -27 -39 -33 -70 -13 -58
11 6 11 4 1 -7 -15 -16 -17 -43 -3 -34 10 6 6 -43 -7 -90 l-5 -20 16 20 c15
20 16 20 13 -5 -1 -14 3 -24 9 -23 6 1 17 -9 25 -23 10 -20 11 -31 0 -57 -6
-18 -13 -49 -15 -70 l-3 -37 459 0 c365 0 458 3 452 13 -6 9 -4 9 8 -1 9 -7
34 -12 55 -10 37 3 39 5 85 98 27 52 56 124 65 160 19 74 21 180 4 232 -16 47
-54 83 -78 73 -16 -8 -15 -9 5 -13 17 -3 31 -19 49 -58 24 -53 25 -59 15 -157
-11 -116 -42 -204 -85 -249 l-29 -28 -30 37 c-43 55 -44 54 -8 -12 19 -37 24
-50 11 -33 -12 14 -30 37 -41 50 l-20 23 10 -27 c6 -18 6 -29 -1 -33 -13 -8
-59 35 -59 56 0 9 -11 33 -25 53 -14 21 -37 60 -51 88 -14 28 -42 74 -62 102
-20 28 -53 76 -74 106 -21 30 -52 71 -68 91 -24 28 -30 42 -25 61 8 32 45 27
45 -6 1 -20 1 -20 16 4 l15 25 -6 -28 c-7 -35 10 -33 38 5 15 20 19 42 19 97
-1 38 -6 79 -12 91 -8 15 -8 31 1 60 7 23 15 36 19 30 3 -5 12 7 19 28 17 48
50 102 62 102 6 0 7 -4 4 -10 -8 -13 -3 -13 32 2 39 16 53 18 53 7 0 -5 -5 -9
-11 -9 -8 0 -8 -5 1 -15 20 -24 59 -19 72 10 9 19 14 22 25 14 10 -9 13 -7 13
9 0 11 -7 25 -15 32 -21 18 -9 30 31 30 19 0 34 5 34 10 0 6 -4 10 -10 10 -5
0 -10 7 -10 15 0 16 42 47 58 43 6 -2 17 6 26 17 14 20 15 19 26 -10 8 -22 13
-26 19 -16 7 11 11 9 20 -7 10 -19 8 -23 -19 -37 -40 -21 -38 -29 6 -22 l36 6
-26 -24 c-33 -30 -34 -55 -3 -49 12 2 16 2 10 -2 -18 -8 -16 -33 2 -40 21 -8
45 14 45 40 0 16 2 18 9 7 7 -11 11 -10 20 5 18 29 7 -150 -13 -203 -8 -24
-11 -43 -6 -43 6 0 10 5 10 11 0 5 4 7 10 4 5 -3 12 12 16 35 4 22 10 40 15
40 5 0 9 7 9 16 0 9 5 12 11 8 8 -5 10 6 5 37 -8 57 -15 143 -9 107 5 -31 19
-37 26 -10 3 9 3 0 2 -20 -5 -58 12 -54 20 5 7 44 9 48 15 27 6 -17 8 -2 9 50
2 73 2 74 14 40 7 -19 18 -44 25 -55 20 -35 14 72 -9 150 -11 39 -22 81 -23
95 -2 14 -9 39 -15 55 l-11 30 20 -24 c11 -13 20 -18 20 -12 0 5 -15 27 -32
48 l-33 37 43 -34 c23 -18 42 -38 42 -43 0 -6 3 -8 6 -4 14 14 -39 77 -81 97
-25 12 -47 25 -50 30 -10 16 28 20 57 6 21 -11 28 -12 26 -3 -2 7 -17 19 -34
27 -24 12 -29 21 -26 45 l2 30 -15 -34 c-8 -19 -18 -31 -21 -28 -3 3 -1 14 5
25 6 12 11 33 10 49 0 24 -3 22 -17 -17 l-16 -45 -18 59 c-10 33 -23 65 -29
73 -7 8 -10 33 -7 61 5 46 5 46 -8 17 -10 -23 -13 -26 -14 -10 -1 12 -6 5 -15
-19 -7 -21 -11 -46 -8 -55 3 -12 1 -11 -11 3 -9 11 -16 24 -16 30 0 5 -3 6 -7
3 -4 -4 -20 5 -36 20 -29 27 -29 27 -14 3 27 -39 20 -46 -13 -15 -16 16 -30
26 -30 22 0 -3 -30 7 -66 23 -81 37 -87 37 -43 4z"/>
<path d="M1491 478 c14 -50 11 -188 -6 -270 -9 -40 -29 -102 -45 -137 -17 -35
-29 -66 -27 -68 2 -2 104 -2 225 -1 l221 3 -39 116 c-59 177 -108 267 -167
306 -40 27 -154 83 -168 83 -2 0 1 -15 6 -32z"/>
</g>
</svg>
